<svg width="1024" height="1024" viewBox="0 0 1024 1024" xmlns="http://www.w3.org/2000/svg"><defs><radialGradient id="field" cx="0.5" cy="0.24" r="0.92"><stop offset="0" stop-color="#2a313d"/><stop offset="0.6" stop-color="#1a1f27"/><stop offset="1" stop-color="#14181f"/></radialGradient><radialGradient id="field_fg" cx="0.16" cy="0.30" r="1.25"><stop offset="0" stop-color="#2a313d"/><stop offset="0.55" stop-color="#191e26"/><stop offset="1" stop-color="#13171d"/></radialGradient><linearGradient id="g_blue" x1="0" y1="0" x2="0" y2="1"><stop offset="0" stop-color="#6f9bf6"/><stop offset="0.52" stop-color="#2f6df0"/><stop offset="1" stop-color="#224f97"/></linearGradient><linearGradient id="g_green" x1="0" y1="0" x2="0" y2="1"><stop offset="0" stop-color="#4fcb96"/><stop offset="0.52" stop-color="#16a36b"/><stop offset="1" stop-color="#0f714a"/></linearGradient><linearGradient id="g_red" x1="0" y1="0" x2="0" y2="1"><stop offset="0" stop-color="#ec7a72"/><stop offset="0.52" stop-color="#d8453b"/><stop offset="1" stop-color="#9b2f28"/></linearGradient><filter id="soft" x="-40%" y="-40%" width="180%" height="180%"><feGaussianBlur stdDeviation="11"/></filter></defs><line x1="316" y1="708" x2="708" y2="316" stroke="#ffffff" stroke-opacity="0.12" stroke-width="20" stroke-linecap="round"/><g><circle cx="316" cy="708" r="78" fill="url(#g_blue)"/><circle cx="316" cy="708" r="57.7" fill="none" stroke="#ffffff" stroke-opacity="0.55" stroke-width="7.0" stroke-dasharray="13.6 9.1" stroke-linecap="round"/><circle cx="316" cy="708" r="25.7" fill="#ffffff" fill-opacity="0.16"/></g><g><circle cx="708" cy="316" r="78" fill="url(#g_blue)"/><circle cx="708" cy="316" r="57.7" fill="none" stroke="#ffffff" stroke-opacity="0.55" stroke-width="7.0" stroke-dasharray="13.6 9.1" stroke-linecap="round"/><circle cx="708" cy="316" r="25.7" fill="#ffffff" fill-opacity="0.16"/></g><g><circle cx="414" cy="610" r="78" fill="url(#g_green)"/><circle cx="414" cy="610" r="57.7" fill="none" stroke="#ffffff" stroke-opacity="0.55" stroke-width="7.0" stroke-dasharray="13.6 9.1" stroke-linecap="round"/><circle cx="414" cy="610" r="25.7" fill="#ffffff" fill-opacity="0.16"/></g><g><circle cx="610" cy="414" r="78" fill="url(#g_green)"/><circle cx="610" cy="414" r="57.7" fill="none" stroke="#ffffff" stroke-opacity="0.55" stroke-width="7.0" stroke-dasharray="13.6 9.1" stroke-linecap="round"/><circle cx="610" cy="414" r="25.7" fill="#ffffff" fill-opacity="0.16"/></g><g><circle cx="512" cy="512" r="86" fill="url(#g_red)"/><circle cx="512" cy="512" r="63.6" fill="none" stroke="#ffffff" stroke-opacity="0.55" stroke-width="7.7" stroke-dasharray="15.0 10.0" stroke-linecap="round"/><circle cx="512" cy="512" r="28.4" fill="#ffffff" fill-opacity="0.16"/></g></svg>